<svg height="472pt" viewBox="0 -104 472 472" width="472pt" xmlns="http://www.w3.org/2000/svg"><path d="m0 128h464v72h-464zm0 0" fill="#b5b5b3"/><g fill="#c9c9c7"><path d="m224 128h16v72h-16zm0 0"/><path d="m176 128h16v72h-16zm0 0"/><path d="m128 128h16v72h-16zm0 0"/><path d="m80 128h16v72h-16zm0 0"/><path d="m32 128h16v72h-16zm0 0"/><path d="m416 128h16v72h-16zm0 0"/><path d="m368 128h16v72h-16zm0 0"/><path d="m320 128h16v72h-16zm0 0"/><path d="m272 128h16v72h-16zm0 0"/></g><path d="m0 200h464v32h-464zm0 0" fill="#d6d6d4"/><path d="m464 168h-425.535156c-21.242188 0-38.464844-17.222656-38.464844-38.464844 0-15.472656 9.273438-29.441406 23.535156-35.445312l92.730469-39.042969c23.582031-9.933594 48.917969-15.050781 74.511719-15.046875h273.222656zm0 0" fill="#e0e0de"/><path d="m.0976562 128c0 .511719-.0976562 1.015625-.0976562 1.535156 0 21.242188 17.222656 38.464844 38.464844 38.464844h425.535156v-40zm0 0" fill="#d6d6d4"/><path d="m128 72h-52l-52.464844 22.089844c-5.285156 2.230468-10.007812 5.617187-13.816406 9.910156h118.28125c8.835938 0 16-7.164062 16-16s-7.164062-16-16-16zm0 0" fill="#2066a1"/><path d="m248 72h16c4.417969 0 8 3.582031 8 8v16c0 4.417969-3.582031 8-8 8h-16c-4.417969 0-8-3.582031-8-8v-16c0-4.417969 3.582031-8 8-8zm0 0" fill="#2066a1"/><path d="m312 72h16c4.417969 0 8 3.582031 8 8v16c0 4.417969-3.582031 8-8 8h-16c-4.417969 0-8-3.582031-8-8v-16c0-4.417969 3.582031-8 8-8zm0 0" fill="#2066a1"/><path d="m376 72h16c4.417969 0 8 3.582031 8 8v16c0 4.417969-3.582031 8-8 8h-16c-4.417969 0-8-3.582031-8-8v-16c0-4.417969 3.582031-8 8-8zm0 0" fill="#2066a1"/><path d="m440 72h16c4.417969 0 8 3.582031 8 8v16c0 4.417969-3.582031 8-8 8h-16c-4.417969 0-8-3.582031-8-8v-16c0-4.417969 3.582031-8 8-8zm0 0" fill="#2066a1"/><path d="m184 72h16c4.417969 0 8 3.582031 8 8v48c0 4.417969-3.582031 8-8 8h-16c-4.417969 0-8-3.582031-8-8v-48c0-4.417969 3.582031-8 8-8zm0 0" fill="#2066a1"/><path d="m232 128h232v16h-232zm0 0" fill="#348fd9"/><path d="m104 128h48v16h-48zm0 0" fill="#348fd9"/><path d="m32 128h16v16h-16zm0 0" fill="#c9c9c7"/><path d="m0 232h464v32h-464zm0 0" fill="#ffb531"/><path d="m232 0h208v16h-208zm0 0" fill="#e0e0de"/><path d="m456 0h16v16h-16zm0 0" fill="#e0e0de"/></svg>